<svg
  xmlns="http://www.w3.org/2000/svg"
  xmlns:xlink="http://www.w3.org/1999/xlink"
  width="18px" height="22px">
  <path fill-rule="evenodd"  fill="rgb(40, 40, 40)"
        d="M17.262,14.943 C17.069,15.656 16.616,16.457 16.063,17.062 C15.916,17.223 15.782,17.354 15.765,17.354 C15.747,17.354 15.740,17.123 15.750,16.840 C15.781,15.948 15.629,14.676 15.378,13.730 C15.322,13.518 15.269,13.350 15.261,13.357 C15.254,13.365 15.276,13.538 15.311,13.743 C15.596,15.394 15.488,17.804 15.043,19.731 L14.984,19.988 L13.808,20.011 L12.634,20.034 L12.425,20.317 C11.889,21.042 10.998,21.629 10.005,21.909 C9.640,22.012 8.486,22.032 8.087,21.943 C7.437,21.797 7.072,21.640 6.518,21.268 C6.173,21.036 5.664,20.544 5.423,20.209 L5.281,20.011 L4.143,20.011 L3.004,20.011 L2.881,19.417 C2.499,17.579 2.400,15.593 2.617,14.074 C2.645,13.873 2.659,13.699 2.647,13.687 C2.614,13.654 2.444,14.428 2.354,15.025 C2.300,15.379 2.271,15.861 2.268,16.456 C2.267,16.950 2.250,17.353 2.234,17.354 C2.216,17.354 2.083,17.223 1.936,17.062 C1.383,16.456 0.927,15.653 0.740,14.953 C0.593,14.405 0.591,13.512 0.736,12.972 C0.869,12.475 1.275,11.646 1.583,11.242 C1.926,10.792 2.643,10.129 3.140,9.801 C3.612,9.491 4.469,9.046 4.766,8.957 C4.949,8.903 4.955,8.905 5.163,9.096 C5.280,9.204 5.549,9.404 5.761,9.541 C6.862,10.253 7.859,10.532 9.157,10.490 C10.506,10.447 11.573,10.050 12.643,9.194 L13.058,8.862 L13.274,8.942 C13.822,9.147 14.616,9.595 15.173,10.014 C15.563,10.306 16.141,10.881 16.438,11.270 C16.728,11.651 17.134,12.491 17.261,12.972 C17.404,13.516 17.404,14.415 17.262,14.943 ZM2.666,13.551 C2.664,13.600 2.675,13.627 2.690,13.612 C2.706,13.596 2.708,13.556 2.694,13.522 C2.679,13.485 2.668,13.496 2.666,13.551 ZM12.351,16.748 C12.037,15.747 11.381,14.989 10.449,14.554 C9.899,14.297 9.454,14.213 8.794,14.241 C7.851,14.282 7.146,14.596 6.474,15.276 C6.042,15.712 5.795,16.107 5.631,16.622 C5.399,17.352 5.399,18.102 5.631,18.832 C5.992,19.966 7.009,20.886 8.198,21.156 C8.634,21.255 9.613,21.216 10.005,21.084 C11.174,20.689 11.988,19.864 12.351,18.706 C12.443,18.412 12.460,18.256 12.460,17.727 C12.460,17.197 12.443,17.042 12.351,16.748 ZM8.670,16.372 C8.116,16.211 8.048,15.347 8.570,15.100 C9.103,14.848 9.725,15.181 9.724,15.717 C9.724,16.226 9.228,16.534 8.670,16.372 ZM9.607,16.958 L9.620,18.694 L9.631,20.430 L8.953,20.430 L8.275,20.430 L8.275,18.681 L8.275,16.932 L8.941,16.945 L9.607,16.958 ZM10.461,9.307 C9.695,9.550 9.091,9.610 8.344,9.515 C6.403,9.269 4.797,7.845 4.295,5.925 C4.167,5.432 4.124,4.534 4.204,4.032 C4.516,2.089 5.876,0.614 7.854,0.073 C8.095,0.007 8.332,-0.009 8.999,-0.008 C9.776,-0.006 9.873,0.005 10.252,0.120 C11.139,0.391 11.823,0.801 12.416,1.418 C13.033,2.061 13.413,2.734 13.636,3.578 C13.795,4.180 13.817,5.128 13.684,5.743 C13.325,7.416 12.080,8.793 10.461,9.307 Z"/>
</svg>
