<svg xmlns="http://www.w3.org/2000/svg"
     width="20.000000pt" height="18.000000pt" viewBox="0 0 20.000000 18.000000"
     preserveAspectRatio="xMidYMid meet">
  <g transform="translate(0.000000,18.000000) scale(0.100000,-0.100000)"
     fill="rgb(40, 40, 40)" stroke="none">
    <path d="M64 155 c-4 -9 -19 -15 -35 -15 -19 0 -29 -5 -29 -15 0 -12 18 -15
100 -15 79 0 100 3 100 14 0 8 -15 17 -35 20 -19 4 -35 11 -35 16 0 16 -60 11
-66 -5z m49 -2 c-7 -2 -21 -2 -30 0 -10 3 -4 5 12 5 17 0 24 -2 18 -5z"/>
    <path d="M0 55 l0 -46 98 3 97 3 0 40 c0 35 -3 40 -24 43 -15 2 -28 -3 -33
-12 -12 -20 -67 -21 -74 -1 -4 9 -19 15 -35 15 -28 0 -29 -2 -29 -45z"/>
    <path d="M80 90 c0 -5 9 -10 20 -10 11 0 20 5 20 10 0 6 -9 10 -20 10 -11 0
-20 -4 -20 -10z"/>
  </g>
</svg>
