<svg
  xmlns="http://www.w3.org/2000/svg"
  xmlns:xlink="http://www.w3.org/1999/xlink"
  width="18px" height="20px">
  <path fill-rule="evenodd"  fill="rgb(40, 40, 40)"
        d="M17.231,11.677 C17.058,11.873 16.712,12.047 16.415,12.087 C16.115,12.127 15.920,12.195 15.893,12.267 C15.858,12.358 15.943,12.639 16.101,12.951 C16.263,13.270 16.250,13.372 16.023,13.572 C15.866,13.709 15.860,13.724 15.889,13.942 C15.931,14.249 15.893,14.370 15.694,14.563 L15.526,14.725 L15.522,15.494 C15.517,16.182 15.505,16.291 15.411,16.525 C15.281,16.849 14.979,17.191 14.679,17.354 C14.347,17.535 13.957,17.611 13.081,17.665 C11.779,17.746 11.597,17.814 11.407,18.285 C11.326,18.485 11.293,18.664 11.285,18.949 C11.279,19.164 11.271,19.366 11.269,19.399 C11.266,19.432 11.213,19.509 11.151,19.571 L11.039,19.684 L6.772,19.683 C3.960,19.682 2.477,19.665 2.424,19.634 C2.332,19.580 2.207,19.357 2.207,19.244 C2.207,19.202 2.402,18.698 2.642,18.124 C3.375,16.366 3.506,15.893 3.506,15.001 C3.506,14.549 3.485,14.357 3.409,14.104 C3.303,13.752 2.401,11.906 1.906,11.028 C1.343,10.030 1.003,9.174 0.803,8.250 C0.637,7.486 0.597,6.455 0.709,5.816 C0.850,5.006 1.260,3.985 1.709,3.324 C2.562,2.070 4.497,0.950 6.554,0.519 C7.202,0.384 7.867,0.318 8.525,0.317 C9.973,0.316 11.392,0.634 12.529,1.242 C12.731,1.350 13.032,1.475 13.195,1.519 C13.902,1.709 14.701,2.219 15.146,2.764 C15.534,3.240 15.871,3.899 16.023,4.480 C16.129,4.884 15.979,5.127 15.623,5.127 C15.539,5.127 15.420,5.093 15.359,5.050 C15.260,4.981 15.252,4.980 15.277,5.048 C15.293,5.089 15.383,5.428 15.478,5.802 C15.660,6.519 15.686,6.890 15.638,7.998 C15.615,8.506 15.671,8.635 16.241,9.376 C17.362,10.839 17.562,11.301 17.231,11.677 ZM13.512,6.904 C13.492,6.734 13.432,6.497 13.380,6.378 C13.208,5.991 13.002,5.838 12.590,5.789 L12.346,5.760 L12.248,5.514 C12.155,5.275 12.153,5.265 12.235,5.191 C12.543,4.914 12.598,4.253 12.346,3.889 C12.107,3.544 11.649,3.088 11.382,2.928 C11.167,2.799 11.064,2.768 10.790,2.750 C10.469,2.730 10.451,2.734 10.251,2.887 L10.043,3.045 L9.774,2.925 C9.511,2.808 9.503,2.799 9.439,2.554 C9.359,2.234 9.182,2.012 8.894,1.867 C8.680,1.759 8.624,1.752 7.931,1.752 C7.120,1.752 7.031,1.776 6.720,2.067 C6.526,2.249 6.440,2.413 6.425,2.628 C6.414,2.785 6.396,2.804 6.163,2.908 L5.911,3.019 L5.624,2.873 C5.310,2.714 4.936,2.679 4.728,2.789 C4.465,2.928 3.931,3.371 3.770,3.585 C3.536,3.893 3.357,4.285 3.358,4.484 C3.358,4.669 3.502,5.012 3.639,5.158 L3.733,5.258 L3.642,5.503 C3.551,5.745 3.548,5.748 3.325,5.776 C2.989,5.818 2.728,5.977 2.550,6.248 C2.466,6.376 2.344,7.034 2.344,7.364 C2.344,7.848 2.526,8.381 2.769,8.607 C2.898,8.727 3.122,8.801 3.359,8.801 C3.514,8.801 3.529,8.814 3.625,9.047 L3.727,9.292 L3.567,9.529 C3.397,9.782 3.326,10.076 3.374,10.332 C3.408,10.513 3.857,11.140 4.123,11.379 C4.510,11.725 4.982,11.919 5.293,11.861 C5.384,11.844 5.551,11.769 5.665,11.693 L5.872,11.556 L6.126,11.668 C6.368,11.775 6.383,11.791 6.436,12.012 C6.503,12.293 6.704,12.582 6.905,12.686 C7.315,12.897 8.314,12.935 8.785,12.756 C9.179,12.605 9.360,12.413 9.427,12.071 L9.483,11.787 L9.741,11.669 C9.937,11.578 10.017,11.561 10.069,11.600 C10.252,11.733 10.616,11.877 10.772,11.877 C11.015,11.878 11.235,11.775 11.614,11.485 C12.157,11.070 12.525,10.506 12.523,10.091 C12.522,9.867 12.395,9.570 12.241,9.431 C12.151,9.349 12.151,9.348 12.242,9.097 C12.311,8.913 12.359,8.847 12.423,8.847 C12.782,8.847 13.212,8.580 13.378,8.255 C13.488,8.037 13.561,7.309 13.512,6.904 ZM12.226,8.258 C12.080,8.257 11.930,8.282 11.895,8.311 C11.859,8.341 11.794,8.472 11.752,8.603 C11.709,8.734 11.625,8.938 11.565,9.057 C11.505,9.177 11.457,9.319 11.457,9.375 C11.457,9.401 11.483,9.450 11.519,9.504 C11.564,9.569 11.627,9.645 11.701,9.723 C11.790,9.816 11.852,9.895 11.895,9.963 C11.939,10.027 11.963,10.079 11.963,10.114 C11.963,10.340 11.500,10.892 11.070,11.178 C10.794,11.363 10.666,11.339 10.357,11.045 C10.211,10.906 10.064,10.792 10.032,10.792 C9.998,10.792 9.845,10.852 9.691,10.924 C9.536,10.996 9.328,11.081 9.226,11.113 C8.918,11.210 8.881,11.268 8.881,11.645 C8.881,12.052 8.862,12.108 8.685,12.199 C8.520,12.285 7.760,12.324 7.470,12.263 C7.259,12.218 7.142,12.166 7.076,12.060 C7.007,11.961 6.988,11.809 6.988,11.552 C6.988,11.410 6.986,11.331 6.972,11.281 C6.957,11.244 6.934,11.224 6.893,11.208 C6.836,11.185 6.613,11.090 6.399,10.998 C5.816,10.746 5.844,10.745 5.534,11.040 C5.190,11.368 5.086,11.375 4.714,11.095 C4.417,10.872 4.327,10.778 4.109,10.461 C4.055,10.383 4.016,10.317 3.993,10.258 C3.915,10.077 3.976,9.956 4.212,9.710 C4.507,9.401 4.506,9.429 4.254,8.847 C4.164,8.637 4.073,8.426 4.047,8.363 C4.011,8.279 3.967,8.266 3.721,8.263 C3.291,8.258 3.139,8.222 3.056,8.023 C3.026,7.958 3.004,7.876 2.983,7.767 C2.926,7.462 2.955,6.839 3.036,6.607 C3.108,6.406 3.198,6.367 3.599,6.367 C4.001,6.367 4.027,6.346 4.181,5.908 C4.239,5.744 4.325,5.545 4.372,5.466 C4.420,5.388 4.459,5.288 4.459,5.242 C4.447,5.188 4.345,5.048 4.214,4.911 C4.133,4.825 4.075,4.754 4.034,4.688 C3.908,4.502 3.933,4.369 4.086,4.148 C4.247,3.915 4.650,3.532 4.885,3.388 C5.118,3.246 5.263,3.286 5.542,3.568 C5.799,3.829 5.882,3.844 6.197,3.687 C6.316,3.628 6.521,3.544 6.651,3.501 C6.782,3.458 6.911,3.398 6.937,3.366 C6.963,3.335 6.993,3.155 7.002,2.966 C7.024,2.533 7.076,2.435 7.322,2.368 C7.448,2.334 7.689,2.317 7.931,2.317 C8.172,2.317 8.414,2.334 8.539,2.368 C8.679,2.406 8.762,2.457 8.811,2.550 C8.864,2.637 8.882,2.763 8.883,2.962 C8.883,3.131 8.898,3.286 8.916,3.327 C8.978,3.397 9.799,3.747 9.990,3.783 C10.098,3.803 10.161,3.766 10.389,3.549 C10.566,3.381 10.699,3.291 10.772,3.291 C11.066,3.291 11.865,4.071 11.936,4.428 C11.936,4.429 11.936,4.429 11.936,4.429 C11.937,4.434 11.943,4.441 11.944,4.445 C11.968,4.566 11.940,4.618 11.714,4.864 C11.572,5.018 11.457,5.182 11.457,5.229 C11.457,5.276 11.515,5.447 11.588,5.608 C11.661,5.770 11.746,5.984 11.777,6.085 C11.795,6.144 11.814,6.188 11.835,6.226 C11.907,6.344 12.019,6.367 12.306,6.367 C12.657,6.367 12.794,6.413 12.865,6.642 C12.892,6.720 12.912,6.817 12.928,6.946 C12.976,7.339 12.925,7.925 12.827,8.081 C12.750,8.202 12.557,8.259 12.226,8.258 ZM9.521,5.229 C9.049,4.874 8.491,4.701 7.936,4.704 C7.224,4.708 6.518,5.001 6.011,5.564 C5.757,5.846 5.460,6.425 5.385,6.784 C5.310,7.148 5.353,7.804 5.478,8.162 C5.751,8.925 6.375,9.527 7.169,9.790 C7.477,9.891 7.576,9.903 8.023,9.886 C8.424,9.872 8.593,9.844 8.840,9.749 C9.718,9.415 10.323,8.699 10.514,7.768 C10.610,7.302 10.557,6.813 10.383,6.366 C10.207,5.924 9.913,5.524 9.521,5.229 Z"/>
</svg>
