<svg
  xmlns="http://www.w3.org/2000/svg"
  xmlns:xlink="http://www.w3.org/1999/xlink"
  width="18px" height="18px">
  <path fill-rule="evenodd"  fill="rgb(40, 40, 40)"
        d="M-0.000,13.726 L-0.000,11.621 L17.018,11.621 L17.018,13.726 L-0.000,13.726 ZM3.290,10.203 L3.290,9.140 C3.290,8.149 3.293,8.064 3.334,7.900 C3.488,7.300 4.070,6.775 4.895,6.494 C5.451,6.305 5.761,6.272 6.969,6.272 C7.475,6.272 7.885,6.268 7.879,6.262 C7.873,6.257 7.799,6.241 7.713,6.228 C7.141,6.139 6.575,5.853 6.160,5.445 C5.815,5.105 5.647,4.863 5.475,4.453 C5.214,3.833 5.174,3.136 5.364,2.483 C5.418,2.297 5.588,1.924 5.695,1.759 C6.020,1.257 6.418,0.908 6.945,0.658 C7.362,0.461 7.735,0.383 8.226,0.389 C9.650,0.406 10.843,1.444 11.075,2.869 C11.144,3.297 11.094,3.873 10.950,4.296 C10.758,4.856 10.314,5.429 9.808,5.771 C9.513,5.971 9.076,6.146 8.683,6.221 L8.476,6.261 L9.539,6.274 C10.487,6.287 10.630,6.293 10.855,6.335 C11.876,6.525 12.663,7.034 12.952,7.691 C13.070,7.959 13.078,8.051 13.078,9.168 L13.078,10.203 L8.184,10.203 L3.290,10.203 ZM16.909,15.144 L16.909,16.087 L16.909,17.031 L8.509,17.031 L0.109,17.031 L0.109,16.087 L0.109,15.144 L8.509,15.144 L16.909,15.144 Z"/>
</svg>
